<?xml version="1.0" encoding="UTF-8"?>
<svg width="512" height="512" viewBox="0 0 512 512" fill="none" xmlns="http://www.w3.org/2000/svg">
  <rect width="512" height="512" rx="128" fill="#0EA5E9"/>
  <path d="M256 106.667C173.525 106.667 106.667 173.525 106.667 256C106.667 338.475 173.525 405.333 256 405.333C338.475 405.333 405.333 338.475 405.333 256C405.333 173.525 338.475 106.667 256 106.667ZM320 277.333H277.333V320C277.333 331.776 267.776 341.333 256 341.333C244.224 341.333 234.667 331.776 234.667 320V277.333H192C180.224 277.333 170.667 267.776 170.667 256C170.667 244.224 180.224 234.667 192 234.667H234.667V192C234.667 180.224 244.224 170.667 256 170.667C267.776 170.667 277.333 180.224 277.333 192V234.667H320C331.776 234.667 341.333 244.224 341.333 256C341.333 267.776 331.776 277.333 320 277.333Z" fill="white"/>
</svg>
