<?xml version="1.0" encoding="UTF-8"?>
<svg width="192" height="192" viewBox="0 0 192 192" fill="none" xmlns="http://www.w3.org/2000/svg">
  <rect width="192" height="192" rx="48" fill="#0EA5E9"/>
  <path d="M96 40C65.072 40 40 65.072 40 96C40 126.928 65.072 152 96 152C126.928 152 152 126.928 152 96C152 65.072 126.928 40 96 40ZM120 104H104V120C104 124.416 100.416 128 96 128C91.584 128 88 124.416 88 120V104H72C67.584 104 64 100.416 64 96C64 91.584 67.584 88 72 88H88V72C88 67.584 91.584 64 96 64C100.416 64 104 67.584 104 72V88H120C124.416 88 128 91.584 128 96C128 100.416 124.416 104 120 104Z" fill="white"/>
</svg>
